<svg width="42" height="42" viewBox="0 0 42 42" fill="none" xmlns="http://www.w3.org/2000/svg">
<rect width="42" height="42" rx="21" fill="#FFEBE7"/>
<circle cx="21" cy="21" r="12" stroke="#B00909" stroke-width="2" stroke-linecap="round" stroke-linejoin="round"/>
<circle cx="17.6667" cy="17.6666" r="2" fill="#B00909"/>
<circle cx="24.3333" cy="17.6666" r="2" fill="#B00909"/>
<path d="M17 27.6666C17 27.1413 17.1035 26.6212 17.3045 26.1359C17.5055 25.6506 17.8001 25.2096 18.1716 24.8382C18.543 24.4668 18.984 24.1721 19.4693 23.9711C19.9546 23.7701 20.4747 23.6666 21 23.6666C21.5253 23.6666 22.0454 23.7701 22.5307 23.9711C23.016 24.1721 23.457 24.4668 23.8284 24.8382C24.1999 25.2096 24.4945 25.6506 24.6955 26.1359C24.8965 26.6212 25 27.1413 25 27.6666L21 27.6666L17 27.6666Z" stroke="#B00909" stroke-width="2" stroke-linecap="round" stroke-linejoin="round"/>
</svg>
