<svg width="25" height="25" viewBox="0 0 25 25" fill="none" xmlns="http://www.w3.org/2000/svg">
<path d="M20.187 6.27772C20.882 7.28661 20.882 8.69108 20.882 11.5C20.882 14.3089 20.882 15.7134 20.187 16.7223C19.8861 17.159 19.4994 17.534 19.0491 17.8259C18.1404 18.4148 16.9204 18.4892 14.6957 18.4986V18.5L13.5558 20.7111C13.1758 21.4482 12.0913 21.4482 11.7114 20.7111L10.5715 18.5V18.4986C8.34676 18.4892 7.12678 18.4148 6.21806 17.8259C5.76774 17.534 5.38109 17.159 5.08019 16.7223C4.38513 15.7134 4.38513 14.3089 4.38513 11.5C4.38513 8.69108 4.38513 7.28661 5.08019 6.27772C5.38109 5.84096 5.76774 5.46596 6.21806 5.17412C7.25829 4.5 8.70636 4.5 11.6025 4.5H13.6646C16.5608 4.5 18.0089 4.5 19.0491 5.17412C19.4994 5.46596 19.8861 5.84096 20.187 6.27772Z" stroke="#1A1A1A" stroke-width="2" stroke-linecap="round" stroke-linejoin="round"/>
<path d="M9.54041 9.5L15.7267 9.5" stroke="#1A1A1A" stroke-width="2" stroke-linecap="round" stroke-linejoin="round"/>
<path d="M9.54041 13.5H12.6336" stroke="#1A1A1A" stroke-width="2" stroke-linecap="round" stroke-linejoin="round"/>
</svg>
