<svg width="33" height="32" viewBox="0 0 33 32" fill="none" xmlns="http://www.w3.org/2000/svg">
<circle cx="16.5" cy="16" r="12" stroke="#B00909" stroke-width="2" stroke-linecap="round" stroke-linejoin="round"/>
<circle cx="13.1667" cy="12.6666" r="2" fill="#B00909"/>
<circle cx="19.8333" cy="12.6666" r="2" fill="#B00909"/>
<path d="M12.5 22.6666C12.5 22.1413 12.6035 21.6212 12.8045 21.1359C13.0055 20.6506 13.3001 20.2096 13.6716 19.8382C14.043 19.4668 14.484 19.1721 14.9693 18.9711C15.4546 18.7701 15.9747 18.6666 16.5 18.6666C17.0253 18.6666 17.5454 18.7701 18.0307 18.9711C18.516 19.1721 18.957 19.4668 19.3284 19.8382C19.6999 20.2096 19.9945 20.6506 20.1955 21.1359C20.3965 21.6212 20.5 22.1413 20.5 22.6666L16.5 22.6666L12.5 22.6666Z" stroke="#B00909" stroke-width="2" stroke-linecap="round" stroke-linejoin="round"/>
</svg>
