<svg width="76" height="76" viewBox="0 0 76 76" fill="none" xmlns="http://www.w3.org/2000/svg">
<circle cx="38" cy="38" r="28.125" stroke="#B00909" stroke-width="2" stroke-linecap="round" stroke-linejoin="round"/>
<circle cx="30.1875" cy="30.1875" r="4.6875" fill="#B00909"/>
<circle cx="45.8125" cy="30.1875" r="4.6875" fill="#B00909"/>
<path d="M28.625 53.625C28.625 52.3939 28.8675 51.1748 29.3386 50.0373C29.8098 48.8999 30.5003 47.8664 31.3709 46.9959C32.2414 46.1253 33.2749 45.4348 34.4123 44.9636C35.5498 44.4925 36.7689 44.25 38 44.25C39.2311 44.25 40.4502 44.4925 41.5877 44.9636C42.7251 45.4348 43.7586 46.1253 44.6291 46.9959C45.4997 47.8664 46.1902 48.8999 46.6614 50.0373C47.1325 51.1748 47.375 52.3939 47.375 53.625L38 53.625L28.625 53.625Z" stroke="#B00909" stroke-width="2" stroke-linecap="round" stroke-linejoin="round"/>
</svg>
