<svg width="16" height="16" viewBox="0 0 16 16" fill="none" xmlns="http://www.w3.org/2000/svg">
<path d="M7.95162 5.20608H7.97586C8.10692 5.20608 8.2001 5.29926 8.2001 5.43032C8.2001 5.55206 8.09213 5.65456 7.97586 5.65456H7.95162C7.82056 5.65456 7.72738 5.56137 7.72738 5.43032C7.72738 5.30857 7.83535 5.20608 7.95162 5.20608Z" fill="#FF8080" stroke="#FF8080" stroke-width="0.666667"/>
<path d="M7.75179 7.34548C7.75179 7.22373 7.85977 7.12124 7.97603 7.12124C8.11683 7.12124 8.20028 7.22402 8.20028 7.32124V11.0788C8.20028 11.2006 8.0923 11.3031 7.97603 11.3031C7.85429 11.3031 7.75179 11.1951 7.75179 11.0788V7.34548Z" fill="#FF8080" stroke="#FF8080" stroke-width="0.666667"/>
<path d="M7.97583 0.678772C3.92734 0.678772 0.630371 3.9515 0.630371 7.99998C0.630371 12.0485 3.92734 15.3454 7.97583 15.3454C12.0243 15.3454 15.297 12.0485 15.297 7.99998C15.297 3.9515 12.0243 0.678772 7.97583 0.678772ZM7.97583 14.2545C4.5334 14.2545 1.72128 11.4424 1.72128 7.99998C1.72128 4.55756 4.5334 1.74544 7.97583 1.74544C11.4183 1.74544 14.2061 4.55756 14.2061 7.99998C14.2061 11.4424 11.4183 14.2545 7.97583 14.2545Z" fill="#FF8080"/>
</svg>
