<svg width="16" height="16" viewBox="0 0 16 16" fill="none" xmlns="http://www.w3.org/2000/svg">
<g clip-path="url(#clip0_1709_6597)">
<path d="M6.25832 7.9998C6.25832 7.0339 7.03408 6.25814 7.99999 6.25814C8.96589 6.25814 9.74165 7.0339 9.74165 7.9998C9.74165 8.96571 8.96589 9.74147 7.99999 9.74147C7.03408 9.74147 6.25832 8.96571 6.25832 7.9998ZM6.71665 7.9998C6.71665 8.7089 7.29089 9.28314 7.99999 9.28314C8.70908 9.28314 9.28332 8.7089 9.28332 7.9998C9.28332 7.29071 8.70908 6.71647 7.99999 6.71647C7.29089 6.71647 6.71665 7.29071 6.71665 7.9998Z" fill="#8F90A6" stroke="#8F90A6" stroke-width="0.666667"/>
<path d="M14.6504 8.43747L14.6631 8.41884L14.6731 8.39868C14.7951 8.15484 14.7951 7.84438 14.6731 7.60054L14.6631 7.58037L14.6504 7.56175C13.7218 6.20077 12.7766 5.21526 11.6953 4.57246C10.6095 3.92694 9.41068 3.64128 8 3.64128C6.58932 3.64128 5.39046 3.92694 4.30466 4.57246C3.22345 5.21526 2.27816 6.20077 1.34965 7.56175L1.34963 7.56174L1.34765 7.56471C1.17301 7.82668 1.17301 8.17254 1.34765 8.43451L1.34763 8.43452L1.34965 8.43747C2.27816 9.79844 3.22345 10.784 4.30466 11.4268C5.39046 12.0723 6.58932 12.3579 8 12.3579C9.41068 12.3579 10.6095 12.0723 11.6953 11.4268C12.7766 10.784 13.7218 9.79844 14.6504 8.43747ZM8 3.18294C9.88299 3.18294 11.2854 3.70021 12.3883 4.46425C13.4973 5.23246 14.3196 6.26114 15.0228 7.30976C15.2955 7.71903 15.3009 8.24914 15.0213 8.6917C14.318 9.72763 13.4961 10.7553 12.3878 11.5259C11.2844 12.2933 9.88211 12.8163 8 12.8163C6.11789 12.8163 4.71558 12.2933 3.61219 11.5259C2.50285 10.7545 1.68039 9.72561 0.976644 8.68865C0.702075 8.27585 0.70223 7.72251 0.977108 7.30987C1.68036 6.26121 2.50268 5.23248 3.61169 4.46425C4.71463 3.70021 6.11701 3.18294 8 3.18294Z" fill="#8F90A6" stroke="#8F90A6" stroke-width="0.666667"/>
</g>
<path d="M14.0541 2.05861C14.0989 2.02624 14.1614 2.03627 14.1937 2.08102L14.9891 3.18049C15.0215 3.22523 15.0115 3.28775 14.9667 3.32012L1.99367 12.7051C1.94892 12.7375 1.8864 12.7274 1.85403 12.6827L1.05866 11.5832C1.02628 11.5385 1.03632 11.476 1.08106 11.4436L14.0541 2.05861Z" fill="#8F90A6"/>
<defs>
<clipPath id="clip0_1709_6597">
<rect width="16" height="16" fill="white"/>
</clipPath>
</defs>
</svg>
