<svg width="142" height="142" viewBox="0 0 142 142" fill="none" xmlns="http://www.w3.org/2000/svg">
<rect x="0.5" width="141" height="142" rx="70.5" fill="#90C5CE" fill-opacity="0.4"/>
<rect x="0.5" width="141" height="142" rx="70.5" stroke="#08B6D5"/>
<rect x="28.0121" y="27.7073" width="85.9756" height="86.5854" rx="42.9878" fill="#08B6D5"/>
<path d="M86.51 59.4011L84.4483 57.73C83.4321 56.9074 82.8414 56.917 81.9714 57.9993L66.9867 76.6229L60.0132 70.7879C59.0511 69.974 58.4493 70.0173 57.6583 71.0131L56.0669 73.0998C55.2596 74.1232 55.3628 74.7042 56.3171 75.5068L66.2559 83.7861C67.279 84.652 67.855 84.5628 68.646 83.5939L77.7074 72.7443L86.7688 61.8948C87.62 60.8644 87.5684 60.2488 86.51 59.4011Z" fill="#FDFDFF"/>
</svg>
