<svg width="142" height="142" viewBox="0 0 142 142" fill="none" xmlns="http://www.w3.org/2000/svg">
<rect x="0.5" width="141" height="142" rx="70.5" fill="#FDED72" fill-opacity="0.4"/>
<rect x="0.5" width="141" height="142" rx="70.5" stroke="#FFCC00"/>
<rect x="28.0121" y="27.7073" width="85.9756" height="86.5854" rx="42.9878" fill="#FFCC00"/>
<path d="M46.5032 87.8499C50.7031 93.4346 56.8479 97.3676 63.8087 98.9264C70.7694 100.485 78.0786 99.5648 84.3934 96.3347C90.7082 93.1045 95.6044 87.7814 98.1825 81.3433C100.761 74.9052 100.847 67.7846 98.4271 61.2896C96.0067 54.7946 91.2416 49.3615 85.0074 45.9885C78.7731 42.6155 71.4884 41.5291 64.4916 42.929C57.4947 44.3289 51.2557 48.1209 46.9208 53.6085C42.5858 59.0961 40.4461 65.9106 40.8948 72.8M40.8948 72.8L35.3312 67.425M40.8948 72.8L46.4584 67.425" stroke="#FDFDFF" stroke-width="3" stroke-linecap="round" stroke-linejoin="round"/>
<path d="M70.5088 56.6667V71L81.636 81.75" stroke="#FDFDFF" stroke-width="3" stroke-linecap="round" stroke-linejoin="round"/>
</svg>
