<svg width="76" height="76" viewBox="0 0 76 76" fill="none" xmlns="http://www.w3.org/2000/svg">
<circle cx="38" cy="38" r="28.125" stroke="#721582" stroke-width="2" stroke-linecap="round" stroke-linejoin="round"/>
<circle cx="30.1875" cy="30.1875" r="4.6875" fill="#721582"/>
<circle cx="45.8125" cy="30.1875" r="4.6875" fill="#721582"/>
<path d="M47.375 44.25C47.375 45.4811 47.1325 46.7002 46.6614 47.8377C46.1902 48.9751 45.4997 50.0086 44.6291 50.8791C43.7586 51.7497 42.7251 52.4402 41.5877 52.9114C40.4502 53.3825 39.2311 53.625 38 53.625C36.7689 53.625 35.5498 53.3825 34.4123 52.9114C33.2749 52.4402 32.2414 51.7497 31.3709 50.8791C30.5003 50.0086 29.8098 48.9751 29.3386 47.8377C28.8675 46.7002 28.625 45.4811 28.625 44.25L38 44.25H47.375Z" stroke="#721582" stroke-width="2" stroke-linecap="round" stroke-linejoin="round"/>
</svg>
