<svg width="33" height="32" viewBox="0 0 33 32" fill="none" xmlns="http://www.w3.org/2000/svg">
<circle cx="16.5" cy="16" r="12" stroke="#721582" stroke-width="2" stroke-linecap="round" stroke-linejoin="round"/>
<circle cx="13.1667" cy="12.6666" r="2" fill="#721582"/>
<circle cx="19.8333" cy="12.6666" r="2" fill="#721582"/>
<path d="M20.5 18.6666C20.5 19.1919 20.3965 19.7121 20.1955 20.1974C19.9945 20.6827 19.6999 21.1236 19.3284 21.4951C18.957 21.8665 18.516 22.1611 18.0307 22.3621C17.5454 22.5632 17.0253 22.6666 16.5 22.6666C15.9747 22.6666 15.4546 22.5632 14.9693 22.3621C14.484 22.1611 14.043 21.8665 13.6716 21.4951C13.3001 21.1236 13.0055 20.6827 12.8045 20.1974C12.6035 19.7121 12.5 19.1919 12.5 18.6666L16.5 18.6666H20.5Z" stroke="#721582" stroke-width="2" stroke-linecap="round" stroke-linejoin="round"/>
</svg>
