<svg width="21" height="20" viewBox="0 0 21 20" fill="none" xmlns="http://www.w3.org/2000/svg">
<circle cx="10.5" cy="10" r="7.5" stroke="#721582" stroke-width="2" stroke-linecap="round" stroke-linejoin="round"/>
<circle cx="8.41675" cy="7.91675" r="1.25" fill="#721582"/>
<ellipse cx="12.5833" cy="7.91675" rx="1.25" ry="1.25" fill="#721582"/>
<path d="M13 11.6667C13 11.9951 12.9353 12.3201 12.8097 12.6235C12.6841 12.9268 12.4999 13.2024 12.2678 13.4345C12.0356 13.6667 11.76 13.8508 11.4567 13.9764C11.1534 14.1021 10.8283 14.1667 10.5 14.1667C10.1717 14.1667 9.84661 14.1021 9.54329 13.9764C9.23998 13.8508 8.96438 13.6667 8.73223 13.4345C8.50009 13.2024 8.31594 12.9268 8.1903 12.6235C8.06466 12.3201 8 11.9951 8 11.6667L10.5 11.6667H13Z" stroke="#721582" stroke-width="2" stroke-linecap="round" stroke-linejoin="round"/>
</svg>
