<svg width="32" height="32" viewBox="0 0 32 32" fill="none" xmlns="http://www.w3.org/2000/svg">
<path d="M8 13.3333H9C9.92047 13.3333 10.6667 14.0795 10.6667 15V19.6667C10.6667 20.5871 9.92047 21.3333 9 21.3333H8C5.79086 21.3333 4 19.5425 4 17.3333C4 15.1242 5.79086 13.3333 8 13.3333ZM8 13.3333V12C8 7.58172 11.5817 4 16 4C20.4183 4 24 7.58172 24 12V13.3333M24 13.3333H23C22.0795 13.3333 21.3333 14.0795 21.3333 15V19.6667C21.3333 20.5871 22.0795 21.3333 23 21.3333H24M24 13.3333C26.2091 13.3333 28 15.1242 28 17.3333C28 19.5425 26.2091 21.3333 24 21.3333M24 21.3333L23.1716 24.6468C22.8749 25.8339 21.8082 26.6667 20.5846 26.6667H17.3333" stroke="#FDFDFF" stroke-width="2" stroke-linecap="round" stroke-linejoin="round"/>
</svg>
