<svg width="24" height="25" viewBox="0 0 24 25" fill="none" xmlns="http://www.w3.org/2000/svg">
<g id="History">
<path id="Ellipse 105" d="M5.52786 17.2023C6.6602 18.7608 8.3169 19.8584 10.1936 20.2934C12.0703 20.7284 14.0409 20.4716 15.7434 19.5701C17.446 18.6687 18.766 17.1832 19.4611 15.3865C20.1562 13.5898 20.1796 11.6027 19.527 9.79011C18.8745 7.97756 17.5898 6.46135 15.909 5.52005C14.2282 4.57875 12.2641 4.27558 10.3777 4.66623C8.49129 5.05689 6.80919 6.11514 5.64045 7.64656C4.47171 9.17797 3.89482 11.0797 4.01579 13.0023M4.01579 13.0023L2.51579 11.5023M4.01579 13.0023L5.51579 11.5023" stroke="black" stroke-width="2" stroke-linecap="round" stroke-linejoin="round"/>
<path id="Vector 153" d="M12 8.5V12.5L15 15.5" stroke="black" stroke-width="2" stroke-linecap="round" stroke-linejoin="round"/>
</g>
</svg>
