<svg width="21" height="21" viewBox="0 0 21 21" fill="none" xmlns="http://www.w3.org/2000/svg">
<path d="M1.08691 8.5C1.08691 7.94772 1.53463 7.5 2.08691 7.5H5.21114V19.5H2.08691C1.53463 19.5 1.08691 19.0523 1.08691 18.5V8.5Z" stroke="#1A1A1A" stroke-width="2" stroke-linecap="round" stroke-linejoin="round"/>
<path d="M5.21118 9.5V17.5L7.313 18.859C7.9601 19.2774 8.71429 19.5 9.48488 19.5H15.0554C16.5162 19.5 17.7647 18.4478 18.0121 17.0081L19.2441 9.83872C19.4541 8.61668 18.5129 7.5 17.273 7.5H12.4286" stroke="#1A1A1A" stroke-width="2" stroke-linecap="round" stroke-linejoin="round"/>
<path d="M12.4286 7.5L13.1224 4.13527C13.3143 3.20462 12.7751 2.27869 11.8709 1.98638V1.98638C11.0031 1.70584 10.0599 2.09475 9.64196 2.90536L6.24224 9.5H5.21118" stroke="#1A1A1A" stroke-width="2" stroke-linecap="round" stroke-linejoin="round"/>
</svg>
