<svg width="21" height="16" viewBox="0 0 21 16" fill="none" xmlns="http://www.w3.org/2000/svg">
<path d="M1.5 15V14C1.5 11.7909 3.29086 10 5.5 10H9.5C11.7091 10 13.5 11.7909 13.5 14V15M13.5 7C15.1569 7 16.5 5.65685 16.5 4C16.5 2.34315 15.1569 1 13.5 1M19.5 15V14C19.5 11.7909 17.7091 10 15.5 10H15M10.5 4C10.5 5.65685 9.15685 7 7.5 7C5.84315 7 4.5 5.65685 4.5 4C4.5 2.34315 5.84315 1 7.5 1C9.15685 1 10.5 2.34315 10.5 4Z" stroke="#08B6D5" stroke-width="2" stroke-linecap="round" stroke-linejoin="round"/>
</svg>
