<svg xmlns="http://www.w3.org/2000/svg" width="20" height="21" fill="none" viewBox="0 0 20 21">
  <path fill="#1A1A1A" fill-rule="evenodd" d="M14.519 3.25a.75.75 0 0 1 1.052.13l1.547 1.981a.75.75 0 1 1-1.183.923L14.39 4.3a.75.75 0 0 1 .13-1.052" clip-rule="evenodd"/>
  <path fill="#1A1A1A" fill-rule="evenodd" d="M16.983 5.227a.75.75 0 0 0-1.052.14l-1.546 2.017a.75.75 0 1 0 1.19.912l1.547-2.017a.749.749 0 0 0-.14-1.052Z" clip-rule="evenodd"/>
  <path fill="#1A1A1A" fill-rule="evenodd" d="M2.48 9.823a5 5 0 0 1 5-5h7.86a1 1 0 1 1 0 2H7.48a3 3 0 0 0-3 3v1a1 1 0 1 1-2 0v-1Zm3.008 7.928a.75.75 0 0 1-1.053-.13l-1.545-1.98a.75.75 0 1 1 1.182-.924L5.619 16.7a.75.75 0 0 1-.13 1.052" clip-rule="evenodd"/>
  <path fill="#1A1A1A" fill-rule="evenodd" d="M3.024 15.773a.75.75 0 0 0 1.051-.14l1.547-2.017a.75.75 0 0 0-1.19-.912L2.884 14.72a.75.75 0 0 0 .139 1.052" clip-rule="evenodd"/>
  <path fill="#1A1A1A" fill-rule="evenodd" d="M17.527 11.177a5 5 0 0 1-5 5H4.666a1 1 0 1 1 0-2h7.86a3 3 0 0 0 3-3v-1a1 1 0 0 1 2 0l.001 1Z" clip-rule="evenodd"/>
</svg>
