<svg width="20" height="20" viewBox="0 0 20 20" fill="none" xmlns="http://www.w3.org/2000/svg">
<path d="M11.6667 4.40823H10.6667C10.6667 4.85065 10.9574 5.24049 11.3814 5.36669L11.6667 4.40823ZM12.7752 4.86781L12.2987 5.74702C12.6879 5.95788 13.1693 5.88787 13.4823 5.57491L12.7752 4.86781ZM13.4177 4.22527L14.1248 4.93238L14.1248 4.93238L13.4177 4.22527ZM14.8319 4.22528L14.1248 4.93238L14.1248 4.93238L14.8319 4.22528ZM15.7747 5.16808L16.4818 4.46098L16.4818 4.46098L15.7747 5.16808ZM15.7747 6.5823L15.0676 5.87519L15.0676 5.87519L15.7747 6.5823ZM15.1322 7.22482L14.4251 6.51771C14.1121 6.83067 14.0421 7.31212 14.253 7.70125L15.1322 7.22482ZM15.5918 8.33333L14.6333 8.61858C14.7595 9.04262 15.1494 9.33333 15.5918 9.33333V8.33333ZM15.5918 11.6667V10.6667C15.1494 10.6667 14.7595 10.9574 14.6333 11.3814L15.5918 11.6667ZM15.1322 12.7752L14.253 12.2987C14.0421 12.6879 14.1121 13.1693 14.4251 13.4823L15.1322 12.7752ZM15.7747 14.8319L16.4818 15.539L16.4818 15.539L15.7747 14.8319ZM14.8319 15.7747L14.1248 15.0676L14.1248 15.0676L14.8319 15.7747ZM13.4177 15.7747L12.7106 16.4818L12.7106 16.4818L13.4177 15.7747ZM12.7752 15.1322L13.4823 14.4251C13.1693 14.1121 12.6879 14.0421 12.2987 14.253L12.7752 15.1322ZM11.6667 15.5918L11.3814 14.6333C10.9574 14.7595 10.6667 15.1493 10.6667 15.5918H11.6667ZM8.33335 15.5918H9.33335C9.33335 15.1493 9.04263 14.7595 8.6186 14.6333L8.33335 15.5918ZM7.22483 15.1322L7.70126 14.253C7.31213 14.0421 6.83068 14.1121 6.51773 14.4251L7.22483 15.1322ZM6.58232 15.7747L7.28943 16.4818L7.28943 16.4818L6.58232 15.7747ZM5.16811 15.7747L4.461 16.4818L4.461 16.4818L5.16811 15.7747ZM4.2253 14.8319L4.93241 14.1248L4.93241 14.1248L4.2253 14.8319ZM4.2253 13.4177L3.51819 12.7106L3.51819 12.7106L4.2253 13.4177ZM4.86782 12.7751L5.57493 13.4823C5.88788 13.1693 5.95789 12.6878 5.74703 12.2987L4.86782 12.7751ZM4.40825 11.6667L5.3667 11.3814C5.2405 10.9574 4.85066 10.6667 4.40825 10.6667V11.6667ZM2.5 10.6667L3.5 10.6667L2.5 10.6667ZM2.5 9.33333L3.5 9.33333V9.33333H2.5ZM4.40825 8.33333V9.33333C4.85066 9.33333 5.2405 9.04262 5.3667 8.61858L4.40825 8.33333ZM4.86782 7.22485L5.74704 7.70128C5.95789 7.31215 5.88788 6.8307 5.57493 6.51775L4.86782 7.22485ZM4.2253 6.58233L4.93241 5.87523L4.93241 5.87523L4.2253 6.58233ZM4.2253 5.16812L4.93241 5.87523L4.93241 5.87523L4.2253 5.16812ZM5.16811 4.22531L4.461 3.5182L4.461 3.5182L5.16811 4.22531ZM6.58232 4.22531L5.87522 4.93242L5.87522 4.93242L6.58232 4.22531ZM7.22484 4.86782L6.51773 5.57493C6.83069 5.88789 7.31214 5.9579 7.70127 5.74704L7.22484 4.86782ZM8.33335 4.40823L8.6186 5.36669C9.04263 5.24049 9.33335 4.85065 9.33335 4.40823H8.33335ZM9.33335 1.5C8.22878 1.5 7.33335 2.39543 7.33335 3.5H9.33335V3.5V1.5ZM10.6667 1.5H9.33335V3.5H10.6667V1.5ZM12.6667 3.5C12.6667 2.39543 11.7713 1.5 10.6667 1.5V3.5L10.6667 3.5H12.6667ZM12.6667 4.40823V3.5H10.6667V4.40823H12.6667ZM13.2516 3.98859C12.842 3.76665 12.407 3.5852 11.9519 3.44978L11.3814 5.36669C11.7023 5.46218 12.0093 5.59019 12.2987 5.74702L13.2516 3.98859ZM12.7106 3.51817L12.0681 4.1607L13.4823 5.57491L14.1248 4.93238L12.7106 3.51817ZM15.539 3.51817C14.758 2.73712 13.4916 2.73712 12.7106 3.51817L14.1248 4.93238L14.1248 4.93238L15.539 3.51817ZM16.4818 4.46098L15.539 3.51817L14.1248 4.93238L15.0676 5.87519L16.4818 4.46098ZM16.4818 7.28941C17.2629 6.50836 17.2629 5.24203 16.4818 4.46098L15.0676 5.87519L15.0676 5.87519L16.4818 7.28941ZM15.8393 7.93193L16.4818 7.2894L15.0676 5.87519L14.4251 6.51771L15.8393 7.93193ZM16.5502 8.04808C16.4148 7.59304 16.2334 7.15799 16.0114 6.74839L14.253 7.70125C14.4098 7.99069 14.5378 8.29772 14.6333 8.61858L16.5502 8.04808ZM15.5918 9.33333H16.5V7.33333H15.5918V9.33333ZM16.5 9.33333H18.5C18.5 8.22876 17.6046 7.33333 16.5 7.33333V9.33333ZM16.5 9.33333V10.6667H18.5V9.33333H16.5ZM16.5 10.6667V10.6667V12.6667C17.6046 12.6667 18.5 11.7712 18.5 10.6667H16.5ZM16.5 10.6667H15.5918V12.6667H16.5V10.6667ZM16.0114 13.2516C16.2334 12.842 16.4148 12.407 16.5502 11.9519L14.6333 11.3814C14.5378 11.7023 14.4098 12.0093 14.253 12.2987L16.0114 13.2516ZM16.4818 12.7106L15.8393 12.0681L14.4251 13.4823L15.0676 14.1248L16.4818 12.7106ZM16.4818 15.539C17.2629 14.758 17.2629 13.4916 16.4818 12.7106L15.0676 14.1248V14.1248L16.4818 15.539ZM15.539 16.4818L16.4818 15.539L15.0676 14.1248L14.1248 15.0676L15.539 16.4818ZM12.7106 16.4818C13.4916 17.2629 14.758 17.2629 15.539 16.4818L14.1248 15.0676L14.1248 15.0676L12.7106 16.4818ZM12.0681 15.8393L12.7106 16.4818L14.1248 15.0676L13.4823 14.4251L12.0681 15.8393ZM11.9519 16.5502C12.407 16.4148 12.842 16.2334 13.2516 16.0114L12.2987 14.253C12.0093 14.4098 11.7023 14.5378 11.3814 14.6333L11.9519 16.5502ZM12.6667 16.5V15.5918H10.6667V16.5H12.6667ZM10.6667 18.5C11.7712 18.5 12.6667 17.6046 12.6667 16.5H10.6667V18.5ZM9.33335 18.5H10.6667V16.5H9.33335V18.5ZM7.33335 16.5C7.33335 17.6046 8.22877 18.5 9.33335 18.5V16.5H9.33335H7.33335ZM7.33335 15.5918V16.5H9.33335V15.5918H7.33335ZM6.7484 16.0114C7.158 16.2333 7.59305 16.4148 8.0481 16.5502L8.6186 14.6333C8.29773 14.5378 7.9907 14.4098 7.70126 14.253L6.7484 16.0114ZM7.28943 16.4818L7.93194 15.8393L6.51773 14.4251L5.87522 15.0676L7.28943 16.4818ZM4.461 16.4818C5.24205 17.2628 6.50838 17.2628 7.28943 16.4818L5.87522 15.0676H5.87522L4.461 16.4818ZM3.51819 15.539L4.461 16.4818L5.87522 15.0676L4.93241 14.1248L3.51819 15.539ZM3.51819 12.7106C2.73715 13.4916 2.73714 14.7579 3.51819 15.539L4.93241 14.1248L4.93241 14.1248L3.51819 12.7106ZM4.16071 12.068L3.51819 12.7106L4.93241 14.1248L5.57493 13.4823L4.16071 12.068ZM3.44979 11.9519C3.58522 12.4069 3.76666 12.842 3.9886 13.2516L5.74703 12.2987C5.5902 12.0093 5.46219 11.7023 5.3667 11.3814L3.44979 11.9519ZM4.40825 10.6667H3.5V12.6667H4.40825V10.6667ZM3.5 10.6667L3.5 10.6667L1.5 10.6667C1.5 11.7712 2.39543 12.6667 3.5 12.6667V10.6667ZM3.5 10.6667L3.5 9.33333L1.5 9.33333L1.5 10.6667L3.5 10.6667ZM3.5 9.33333L3.5 9.33333V7.33333C2.39543 7.33333 1.5 8.22876 1.5 9.33333H3.5ZM3.5 9.33333H4.40825V7.33333H3.5V9.33333ZM3.98861 6.74843C3.76666 7.15801 3.58522 7.59305 3.44979 8.04808L5.3667 8.61858C5.46219 8.29773 5.5902 7.99071 5.74704 7.70128L3.98861 6.74843ZM3.51819 7.28944L4.16071 7.93196L5.57493 6.51775L4.93241 5.87523L3.51819 7.28944ZM3.5182 4.46101C2.73715 5.24206 2.73715 6.50839 3.5182 7.28944L4.93241 5.87523L4.93241 5.87523L3.5182 4.46101ZM4.461 3.5182L3.5182 4.46101L4.93241 5.87523L5.87522 4.93242L4.461 3.5182ZM7.28943 3.5182C6.50838 2.73716 5.24205 2.73715 4.461 3.5182L5.87522 4.93242L5.87522 4.93242L7.28943 3.5182ZM7.93194 4.16072L7.28943 3.5182L5.87522 4.93242L6.51773 5.57493L7.93194 4.16072ZM8.0481 3.44978C7.59305 3.58521 7.158 3.76666 6.74841 3.98861L7.70127 5.74704C7.9907 5.5902 8.29773 5.46218 8.6186 5.36669L8.0481 3.44978ZM7.33335 3.5V4.40823H9.33335V3.5H7.33335Z" fill="black"/>
<circle cx="10" cy="10" r="2.5" stroke="black" stroke-width="2" stroke-linecap="round" stroke-linejoin="round"/>
</svg>
