<svg width="22" height="21" viewBox="0 0 22 21" fill="none" xmlns="http://www.w3.org/2000/svg">
<path d="M14.4257 5.89294L7.69266 9.15807M7.69266 9.15807C7.18483 8.17492 6.1364 7.5 4.92544 7.5C3.21713 7.5 1.83228 8.84315 1.83228 10.5C1.83228 12.1569 3.21713 13.5 4.92544 13.5C6.1364 13.5 7.18483 12.8251 7.69266 11.8419M7.69266 9.15807C7.90123 9.56185 8.01861 10.0176 8.01861 10.5C8.01861 10.9824 7.90123 11.4381 7.69266 11.8419M14.4257 15.1071L7.69266 11.8419M20.3913 4.5C20.3913 6.15685 19.0064 7.5 17.2981 7.5C15.5898 7.5 14.2049 6.15685 14.2049 4.5C14.2049 2.84315 15.5898 1.5 17.2981 1.5C19.0064 1.5 20.3913 2.84315 20.3913 4.5ZM20.3913 16.5C20.3913 18.1569 19.0064 19.5 17.2981 19.5C15.5898 19.5 14.2049 18.1569 14.2049 16.5C14.2049 14.8431 15.5898 13.5 17.2981 13.5C19.0064 13.5 20.3913 14.8431 20.3913 16.5Z" stroke="#1A1A1A" stroke-width="2" stroke-linecap="round"/>
</svg>
