<svg width="32" height="32" viewBox="0 0 32 32" fill="none" xmlns="http://www.w3.org/2000/svg">
<path d="M6.66667 5.3335H5C4.44772 5.3335 4 5.78121 4 6.3335V12.0002C4 15.6821 6.98477 18.6668 10.6667 18.6668V18.6668C14.3486 18.6668 17.3333 15.6821 17.3333 12.0002V6.3335C17.3333 5.78121 16.8856 5.3335 16.3333 5.3335H14.6667" stroke="#FDFDFF" stroke-width="2" stroke-linecap="round" stroke-linejoin="round"/>
<path d="M10.6666 18.6665V20.9998C10.6666 24.8658 13.8006 27.9998 17.6666 27.9998H18.3333C22.1993 27.9998 25.3333 24.8658 25.3333 20.9998V18.6665" stroke="#FDFDFF" stroke-width="2" stroke-linecap="round" stroke-linejoin="round"/>
<path d="M13.3334 4V6.66667" stroke="#FDFDFF" stroke-width="2" stroke-linecap="round" stroke-linejoin="round"/>
<path d="M8 4V6.66667" stroke="#FDFDFF" stroke-width="2" stroke-linecap="round" stroke-linejoin="round"/>
<ellipse cx="25.3333" cy="16.0002" rx="2.66667" ry="2.66667" stroke="#FDFDFF" stroke-width="2" stroke-linecap="round" stroke-linejoin="round"/>
</svg>
