<svg width="14" height="14" viewBox="0 0 14 14" fill="none" xmlns="http://www.w3.org/2000/svg">
<g id="Suitcase 1">
<path id="Rectangle 69" d="M2.33325 5.83341C2.33325 5.18908 2.85559 4.66675 3.49992 4.66675H10.4999C11.1443 4.66675 11.6666 5.18908 11.6666 5.83341V5.83341C11.6666 6.79991 10.8831 7.58342 9.91659 7.58342H4.08325C3.11675 7.58342 2.33325 6.79991 2.33325 5.83341V5.83341Z" stroke="#08B6D5" stroke-linecap="round" stroke-linejoin="round"/>
<path id="Rectangle 71" d="M5.25 4.08325C5.25 3.11675 6.0335 2.33325 7 2.33325V2.33325C7.9665 2.33325 8.75 3.11675 8.75 4.08325V4.66659H5.25V4.08325Z" stroke="#08B6D5" stroke-linecap="round" stroke-linejoin="round"/>
<rect id="Rectangle 70" x="2.33325" y="4.66675" width="9.33333" height="7" rx="2" stroke="#08B6D5" stroke-linecap="round" stroke-linejoin="round"/>
<path id="Vector 135" d="M5.25 7V8.16667" stroke="#08B6D5" stroke-linecap="round" stroke-linejoin="round"/>
<path id="Vector 136" d="M8.75 7V8.16667" stroke="#08B6D5" stroke-linecap="round" stroke-linejoin="round"/>
</g>
</svg>
