<svg width="12" height="12" viewBox="0 0 12 12" fill="none" xmlns="http://www.w3.org/2000/svg">
<g id="Group 17">
<path id="Rectangle 142" d="M0.75 5.25C0.75 4.69772 1.19772 4.25 1.75 4.25H3.08333V11.25H1.75C1.19772 11.25 0.75 10.8023 0.75 10.25V5.25Z" stroke="#08B6D5" stroke-linecap="round" stroke-linejoin="round"/>
<path id="Rectangle 143" d="M3.08325 5.41667V10.0833L3.82555 10.5782C4.48262 11.0162 5.25465 11.25 6.04435 11.25H7.54187C9.00839 11.25 10.26 10.1898 10.5011 8.7432L10.8618 6.5788C11.065 5.35973 10.1249 4.25 8.889 4.25H7.16659" stroke="#08B6D5" stroke-linecap="round" stroke-linejoin="round"/>
<path id="Rectangle 144" d="M7.16659 4.25L7.56743 2.24576C7.67169 1.7245 7.37148 1.20719 6.86718 1.03909V1.03909C6.36955 0.87321 5.82567 1.09849 5.59109 1.56766L3.66659 5.41667H3.08325" stroke="#08B6D5" stroke-linecap="round" stroke-linejoin="round"/>
</g>
</svg>
