<svg width="20" height="20" viewBox="0 0 20 20" fill="none" xmlns="http://www.w3.org/2000/svg">
<path d="M14.1414 16.2539C13.9381 14.6077 12.5345 13.3333 10.8333 13.3333H9.16667C7.46548 13.3333 6.06194 14.6077 5.85864 16.2539M14.1414 16.2539C16.1655 14.9108 17.5 12.6112 17.5 10C17.5 5.85786 14.1421 2.5 10 2.5C5.85786 2.5 2.5 5.85786 2.5 10C2.5 12.6112 3.83447 14.9108 5.85864 16.2539M14.1414 16.2539C12.9547 17.0413 11.5309 17.5 10 17.5C8.46911 17.5 7.04534 17.0413 5.85864 16.2539M12.5 8.33333C12.5 9.71405 11.3807 10.8333 10 10.8333C8.61929 10.8333 7.5 9.71405 7.5 8.33333C7.5 6.95262 8.61929 5.83333 10 5.83333C11.3807 5.83333 12.5 6.95262 12.5 8.33333Z" stroke="black" stroke-width="2" stroke-linecap="round" stroke-linejoin="round"/>
</svg>
