<svg width="16" height="16" viewBox="0 0 16 16" fill="none" xmlns="http://www.w3.org/2000/svg">
<path d="M8 7.0002C6.125 7.0002 4.625 5.5252 4.625 3.7252C4.625 1.9252 6.125 0.450195 8 0.450195C9.875 0.450195 11.375 1.9252 11.375 3.7252C11.375 5.5252 9.875 7.0002 8 7.0002ZM8 1.5752C6.75 1.5752 5.75 2.5502 5.75 3.7252C5.75 4.9002 6.75 5.8752 8 5.8752C9.25 5.8752 10.25 4.9002 10.25 3.7252C10.25 2.5502 9.25 1.5752 8 1.5752Z" fill="#1A1A1A"/>
<path d="M12.925 15.5756H3.07505C2.57505 15.5756 2.17505 15.1756 2.17505 14.6756V12.4256C2.17505 9.97559 4.17505 7.97559 6.62505 7.97559H9.40005C11.85 7.97559 13.85 9.97559 13.85 12.4256V14.6756C13.825 15.1506 13.425 15.5756 12.925 15.5756ZM3.30005 14.4506H12.725V12.4256C12.725 10.6006 11.225 9.10059 9.40005 9.10059H6.60005C4.77505 9.10059 3.27505 10.6006 3.27505 12.4256V14.4506H3.30005Z" fill="#1A1A1A"/>
</svg>
